# Blender v3.0.0 OBJ File: 'Boat_02.blend'
# www.blender.org
mtllib Boat_02.mtl
o boat-v1
v -0.198756 0.057827 1.538412
v -0.000000 0.154357 -0.526065
v -0.647870 0.151481 -0.284744
v -0.505868 -0.202160 -0.490789
v -0.304159 -0.006233 1.425780
v -0.674629 0.139240 -0.940184
v 0.681829 0.105895 -1.097521
v -0.388926 -0.074173 -1.179660
v 0.481924 -0.067796 -1.146501
v -0.000390 -0.256625 0.791774
v -0.000000 0.069603 1.540821
v 0.205701 0.140697 -0.942598
v 0.323935 0.155193 -0.209748
v -0.563966 0.155770 0.404966
v -0.528276 0.107216 -1.169153
v -0.000390 -0.299859 -0.198187
v -0.000000 0.153065 0.340945
v -0.000000 0.139874 -0.943673
v -0.240031 0.155589 0.797093
v -0.248497 -0.273799 -0.198658
v 0.337181 0.147116 -0.813648
v 0.281983 0.155391 0.293672
v 0.635849 0.070061 -0.064048
v 0.411402 0.127638 -1.192251
v -0.204518 -0.238331 -0.940028
v -0.480062 0.160060 1.094676
v -0.000000 0.155219 1.535175
v -0.000000 0.142162 1.180084
v -0.323935 0.155193 -0.209748
v 0.306637 0.148667 1.484647
v -0.512577 0.123562 1.013946
v -0.000000 -0.033993 -1.184321
v -0.337181 0.147116 -0.813648
v -0.000000 0.146640 0.839797
v -0.000000 0.156005 -0.066396
v -0.000390 -0.071413 1.494983
v 0.296103 -0.220813 0.791774
v -0.681829 0.105895 -1.097521
v 0.505868 -0.202160 -0.490789
v -0.000000 0.125991 -1.194401
v -0.220649 -0.251340 -0.668096
v 0.221118 -0.251264 -0.668096
v 0.240031 0.155589 0.797093
v -0.281983 0.155391 0.293672
v -0.240031 0.151111 1.137380
v 0.276814 -0.296181 0.270780
v -0.000390 -0.327342 0.271016
v -0.276345 -0.296257 0.270780
v 0.198756 0.057827 1.538412
v -0.205701 0.140697 -0.942598
v -0.411402 0.127638 -1.192251
v 0.512577 0.123562 1.013946
v 0.240031 0.151111 1.137380
v -0.481924 -0.067796 -1.146501
v -0.635849 0.070061 -0.064048
v 0.647870 0.151481 -0.284744
v 0.480062 0.160060 1.094676
v -0.295634 -0.220890 0.791774
v -0.306637 0.148667 1.484647
v 0.528276 0.107216 -1.169153
v 0.304159 -0.006233 1.425780
v 0.563966 0.155770 0.404966
v 0.674629 0.139240 -0.940184
v -0.000390 -0.272376 -0.667389
v -0.000390 -0.256456 -0.939184
v 0.204986 -0.238255 -0.940028
v 0.248966 -0.273723 -0.198658
v 0.388926 -0.074173 -1.179660
v -0.000000 -0.147443 -1.166656
vn -0.0126 0.9998 -0.0156
vn -0.0127 0.9998 -0.0157
vn -0.1025 0.9741 -0.2017
vn -0.0957 0.9699 -0.2239
vn -0.0868 -0.9945 -0.0584
vn -0.0868 -0.9945 -0.0583
vn -0.0860 -0.9947 -0.0568
vn 0.1354 0.2311 0.9635
vn 0.1739 0.2279 0.9580
vn 0.1109 0.2389 0.9647
vn 0.0207 0.9998 0.0053
vn -0.0058 1.0000 -0.0044
vn -0.6698 -0.7222 -0.1725
vn -0.2364 -0.1398 -0.9616
vn 0.0063 0.9999 -0.0091
vn -0.8417 0.5307 0.0991
vn 0.0969 -0.9939 -0.0525
vn 0.0968 -0.9939 -0.0523
vn 0.0978 -0.9937 -0.0541
vn -0.0206 0.9998 0.0053
vn -0.1143 -0.9842 0.1353
vn -0.1144 -0.9842 0.1351
vn -0.0057 1.0000 -0.0032
vn -0.8873 -0.4605 0.0235
vn -0.0973 -0.9936 -0.0570
vn -0.0972 -0.9936 -0.0570
vn 0.1160 -0.9838 0.1365
vn 0.1159 -0.9838 0.1367
vn 0.4105 -0.2232 -0.8841
vn 0.0112 0.9992 -0.0383
vn -0.6111 -0.2897 0.7366
vn -0.9989 -0.0184 0.0428
vn -0.7677 -0.6101 0.1962
vn -0.4023 -0.8939 -0.1979
vn 0.2342 -0.9259 0.2964
vn 0.2325 -0.9244 0.3025
vn 0.2336 -0.9255 0.2980
vn 0.0349 0.9993 0.0131
vn -0.1865 0.5222 0.8322
vn -0.1973 0.5181 0.8323
vn -0.0851 0.5481 0.8321
vn 0.8086 -0.5758 0.1210
vn 0.0057 1.0000 -0.0032
vn 0.2052 -0.9770 -0.0589
vn -0.1061 -0.9927 -0.0571
vn -0.9844 0.1408 0.1056
vn 0.0165 0.9999 -0.0043
vn 0.0165 0.9999 -0.0042
vn 0.0164 0.9999 -0.0042
vn 0.2364 -0.1398 -0.9616
vn -0.8086 -0.5758 0.1210
vn 0.0689 -0.9076 -0.4141
vn 0.0701 -0.9077 -0.4136
vn 0.0684 -0.9075 -0.4144
vn 0.0016 1.0000 0.0029
vn 0.9989 -0.0184 0.0428
vn 0.0055 -0.0629 -0.9980
vn 0.6111 -0.2897 0.7366
vn 0.8417 0.5307 0.0991
vn -0.0037 0.9985 -0.0553
vn -0.2348 -0.9258 0.2963
vn -0.2343 -0.9254 0.2979
vn -0.2331 -0.9242 0.3024
vn 0.1023 -0.9933 -0.0545
vn 0.1023 -0.9933 -0.0546
vn 0.1102 -0.9924 -0.0548
vn 0.1102 -0.9924 -0.0549
vn -0.0038 0.9994 -0.0347
vn -0.2051 -0.9770 -0.0589
vn -0.0167 0.9999 -0.0044
vn -0.0166 0.9999 -0.0043
vn -0.0165 0.9999 -0.0043
vn 0.0033 0.9987 -0.0507
vn -0.0112 0.9992 -0.0383
vn 0.0127 0.9998 -0.0157
vn -0.0016 1.0000 0.0030
vn 0.0059 1.0000 -0.0044
vn -0.0349 0.9993 0.0131
vn 0.0037 0.9985 -0.0553
vn -0.0044 0.9987 -0.0505
vn -0.0063 0.9999 -0.0091
vn -0.0033 0.9987 -0.0507
vn -0.0062 0.9999 -0.0090
vn 0.0038 0.9994 -0.0347
vn 0.2171 0.9380 -0.2703
vn 0.2521 0.9077 -0.3354
vn 0.2170 0.9381 -0.2699
vn -0.8021 -0.5844 0.1229
vn -0.0016 1.0000 0.0029
vn 0.0058 1.0000 -0.0044
vn -0.9117 -0.0794 0.4031
vn -0.2355 0.9524 -0.1935
vn -0.2521 0.9077 -0.3354
vn -0.2173 0.9380 -0.2701
vn 0.0044 0.9987 -0.0505
vn 0.8999 -0.1674 0.4027
vn -0.0164 0.9999 -0.0042
vn -0.0165 0.9999 -0.0042
vn -0.0041 -0.1539 -0.9881
vn 0.8026 -0.5837 0.1228
vn 0.4026 -0.8937 -0.1978
vn -0.0138 0.9999 -0.0079
vn -0.0137 0.9999 -0.0079
vn -0.0136 0.9999 -0.0078
vn 0.6698 -0.7222 -0.1725
vn 0.1489 -0.8609 -0.4864
vn 0.1507 -0.8610 -0.4857
vn 0.1490 -0.8609 -0.4864
vn 0.2309 -0.1279 -0.9646
vn 0.2333 -0.1324 -0.9634
vn -0.1104 -0.9924 -0.0548
vn -0.1104 -0.9924 -0.0549
vn 0.1446 -0.9537 0.2636
vn 0.1447 -0.9538 0.2634
vn 0.1447 -0.9538 0.2635
vn 0.2148 -0.8749 -0.4342
vn -0.6186 -0.7805 0.0900
vn 0.0041 -0.1539 -0.9881
vn 0.7680 -0.6096 0.1965
vn -0.4105 -0.2232 -0.8841
vn -0.2148 -0.8749 -0.4341
vn 0.9117 -0.0794 0.4031
vn 0.1059 -0.9927 -0.0571
vn 0.1058 -0.9927 -0.0571
vn 0.0970 -0.9936 -0.0570
vn 0.0970 -0.9937 -0.0569
vn -0.1449 -0.9537 0.2636
vn -0.1449 -0.9537 0.2635
vn -0.1450 -0.9537 0.2634
vn -0.0207 0.9998 0.0053
vn 0.0166 0.9999 -0.0043
vn 0.0167 0.9999 -0.0044
vn 0.0136 0.9999 -0.0078
vn 0.0137 0.9999 -0.0079
vn 0.0138 0.9999 -0.0079
vn 0.6192 -0.7801 0.0899
vn 0.9844 0.1408 0.1056
vn -0.0059 1.0000 -0.0044
vn -0.1109 0.2389 0.9647
vn -0.1739 0.2279 0.9580
vn -0.1354 0.2311 0.9635
vn 0.0206 0.9998 0.0053
vn 0.1140 -0.9842 0.1353
vn 0.1141 -0.9842 0.1351
vn 0.1973 0.5181 0.8323
vn 0.1865 0.5222 0.8322
vn 0.0851 0.5481 0.8321
vn -0.1025 -0.9932 -0.0545
vn -0.1025 -0.9932 -0.0546
vn 0.8873 -0.4605 0.0235
vn -0.1163 -0.9838 0.1365
vn -0.1162 -0.9838 0.1367
vn 0.0866 -0.9945 -0.0584
vn 0.0858 -0.9947 -0.0568
vn 0.0866 -0.9945 -0.0583
vn 0.0062 0.9999 -0.0090
vn -0.1507 -0.8611 -0.4857
vn -0.1489 -0.8610 -0.4864
vn -0.1490 -0.8610 -0.4864
vn -0.2309 -0.1279 -0.9646
vn -0.2333 -0.1324 -0.9634
vn -0.0055 -0.0629 -0.9980
vn 0.1235 0.9738 -0.1910
vn 0.1025 0.9741 -0.2017
vn 0.0957 0.9699 -0.2239
vn -0.0971 -0.9939 -0.0525
vn -0.0980 -0.9937 -0.0541
vn -0.0970 -0.9939 -0.0524
vn -0.8999 -0.1674 0.4027
vn -0.0686 -0.9074 -0.4146
vn -0.0703 -0.9076 -0.4138
vn -0.0690 -0.9075 -0.4144
vn -0.2905 -0.7071 0.6447
vn 0.1280 -0.4771 0.8695
vn -0.2984 -0.6823 0.6674
vn 0.2721 -0.6730 0.6878
vn -0.1284 -0.4772 0.8694
vn 0.2897 -0.7077 0.6444
vn -0.0614 -0.7369 0.6732
vn 0.0481 0.2031 0.9780
vn -0.0100 -0.3376 0.9412
vn 0.4821 -0.3602 0.7986
vn -0.0411 -0.3118 0.9492
vn -0.0478 0.2032 0.9780
usemtl 00B2B2B2
s off
f 33//1 3//1 29//2
f 15//3 38//3 6//4
f 25//5 64//6 41//7
f 49//8 30//9 27//10
f 19//11 34//11 17//11
f 62//12 22//12 43//12
f 4//13 38//13 54//13
f 54//14 51//14 8//14
f 2//15 13//15 21//15
f 31//16 26//16 14//16
f 66//17 64//18 65//19
f 43//20 22//20 17//20
f 48//21 10//21 58//22
f 29//23 3//23 14//23
f 4//24 55//24 38//24
f 41//25 16//25 20//26
f 46//27 10//27 47//28
f 9//29 60//29 7//29
f 50//30 33//30 2//30
f 1//31 59//31 5//31
f 6//32 55//32 3//32
f 58//33 5//33 31//33
f 4//34 54//34 25//34
f 37//35 61//36 36//37
f 34//38 45//38 28//38
f 27//39 1//40 11//41
f 39//42 23//42 52//42
f 62//43 56//43 13//43
f 67//44 39//44 46//44
f 47//45 48//45 20//45
f 31//46 3//46 55//46
f 45//47 26//48 59//49
f 9//50 68//50 24//50
f 55//51 4//51 31//51
f 66//52 65//53 69//54
f 35//55 44//55 17//55
f 23//56 7//56 63//56
f 24//57 68//57 32//57
f 49//58 61//58 30//58
f 52//59 62//59 57//59
f 40//60 12//60 24//60
f 58//61 36//62 5//63
f 42//64 16//64 64//65
f 67//66 47//66 16//67
f 2//68 12//68 18//68
f 4//69 25//69 41//69
f 30//70 53//71 28//72
f 21//73 24//73 12//73
f 12//74 2//74 21//74
f 21//75 56//75 63//75
f 22//76 35//76 17//76
f 14//77 26//77 19//77
f 53//78 43//78 34//78
f 40//79 51//79 50//79
f 33//80 51//80 6//80
f 2//81 33//81 29//81
f 33//82 50//82 51//82
f 2//83 29//83 35//83
f 40//79 50//79 18//79
f 2//84 18//84 50//84
f 63//85 60//86 24//87
f 4//88 58//88 31//88
f 22//89 13//89 35//89
f 53//78 34//78 28//78
f 14//90 19//90 44//90
f 24//57 32//57 40//57
f 31//91 59//91 26//91
f 21//75 13//75 56//75
f 51//92 15//93 6//94
f 21//95 63//95 24//95
f 23//56 63//56 56//56
f 52//96 30//96 61//96
f 30//97 57//98 53//72
f 68//99 69//99 32//99
f 52//100 37//100 39//100
f 39//101 66//101 9//101
f 28//102 27//103 30//104
f 7//105 39//105 9//105
f 66//106 69//107 68//108
f 9//109 24//50 60//110
f 47//111 20//111 16//112
f 62//43 13//43 22//43
f 37//113 36//114 10//115
f 68//116 9//116 66//116
f 48//117 58//117 4//117
f 20//69 48//69 4//69
f 69//118 8//118 32//118
f 61//119 37//119 52//119
f 54//120 38//120 15//120
f 29//23 14//23 44//23
f 8//121 25//121 54//121
f 41//69 20//69 4//69
f 30//122 52//122 57//122
f 67//123 46//124 47//124
f 42//125 67//126 16//125
f 26//38 45//38 19//38
f 58//127 10//128 36//129
f 40//60 18//60 12//60
f 52//59 56//59 62//59
f 35//55 29//55 44//55
f 43//130 17//130 34//130
f 28//47 45//131 59//132
f 59//133 27//134 28//135
f 57//78 43//78 53//78
f 31//16 14//16 3//16
f 39//136 37//136 46//136
f 42//44 66//44 39//44
f 23//137 56//137 52//137
f 62//138 43//138 57//138
f 67//44 42//44 39//44
f 27//139 59//140 1//141
f 34//38 19//38 45//38
f 6//32 38//32 55//32
f 19//142 17//142 44//142
f 46//143 37//144 10//143
f 49//145 27//146 11//147
f 41//148 64//149 16//148
f 23//150 39//150 7//150
f 48//151 47//152 10//151
f 66//153 42//154 64//155
f 2//156 35//156 13//156
f 69//157 25//158 8//159
f 54//160 15//161 51//14
f 51//162 32//162 8//162
f 7//163 60//164 63//165
f 25//166 65//167 64//168
f 31//169 5//169 59//169
f 33//2 6//2 3//2
f 69//170 65//171 25//172
f 51//162 40//162 32//162
f 36//173 1//174 5//175
f 61//176 49//177 36//178
f 11//179 1//180 36//181
f 11//182 36//183 49//184
